# xmcd
# 
# Track frame offsets:
#     150
#     24925
#     45312
#     77885
#     99604
#     140854
#     163320
#     190079
# 
# Disc length: 2975
# 
# Revision: 2
# Processed by: cddbd v1.5.2PL0 Copyright (c) Steve Scherf et al.
# Submitted via: fre:ac v1.0.17
# 
DISCID=650b9d08
DTITLE=Various Artist - Famous Dave's BBQ and Blues Festival
DYEAR=2006
DGENRE=Blues
TTITLE0=Paul Metsa and Sonny Earl - Lollipop Mama
TTITLE1=Big George Jackson - Got to Move
TTITLE2=Billy Branch and the Sons of Blues - Crazy Mixed Up World
TTITLE3=The Butanes - Crosscut Saw
TTITLE4=Phil Guy With the Butanes - Long Distance Call
TTITLE5=The Chicago Rythm and Blues Kings - Girlfriend, Woman and Wife
TTITLE6=Texas Slim and the Love Machine - I Have Arrived
TTITLE7=Lady Bianca - Found Love
EXTD=Volume 1
EXTT0=
EXTT1=
EXTT2=
EXTT3=
EXTT4=
EXTT5=
EXTT6=
EXTT7=
PLAYORDER=
